<svg width="25" height="24" viewBox="0 0 25 24" fill="none" xmlns="http://www.w3.org/2000/svg">
<g clip-path="url(#clip0_11_161)">
<circle cx="13.6058" cy="12.1212" r="11.3636" fill="#CE6E14"/>
<circle cx="12.8485" cy="12.1212" r="11.3636" fill="#FFBB8E"/>
<path d="M13.1044 15.1059C14.151 15.1059 14.8826 15.6914 15.3102 16.24H15.3046C15.5578 16.5679 15.9827 16.588 16.2584 16.2869C16.5342 15.9858 16.5511 15.4773 16.2978 15.1527C15.6816 14.3531 14.6097 13.5 13.1016 13.5C11.5935 13.5 10.5243 14.3565 9.90528 15.1527C9.65206 15.4773 9.67175 15.9858 9.94467 16.2869C10.2176 16.588 10.6453 16.5646 10.8985 16.24C11.3262 15.6914 12.0577 15.1059 13.1044 15.1059Z" fill="#CE6E14"/>
<path d="M8.3031 3.03027C7.83436 3.28473 7.58191 3.45303 7.16674 3.78785C6.67821 4.18182 6.15664 4.79795 6.03038 4.92421M4.5153 6.43936C4.01025 7.07068 3.23731 8.65178 3.00015 10.2272C2.84601 11.2512 3.00015 12.6262 3.00015 12.8788" stroke="white" stroke-width="0.757576" stroke-linecap="round"/>
<path d="M7.54541 6.81818L10.9545 8.71212L7.54541 10.9848" stroke="#CE6E14" stroke-width="0.757576" stroke-linecap="round"/>
<path d="M18.5303 6.81818L15.1212 8.71212L18.5303 10.9848" stroke="#CE6E14" stroke-width="0.757576" stroke-linecap="round"/>
</g>
<defs>
<clipPath id="clip0_11_161">
<rect width="24" height="24" fill="white" transform="translate(0.727051)"/>
</clipPath>
</defs>
</svg>
