<svg width="25" height="25" viewBox="0 0 25 25" fill="none" xmlns="http://www.w3.org/2000/svg">
<g clip-path="url(#clip0_11_162)">
<circle cx="13.788" cy="12.8788" r="11.3636" fill="#53969A"/>
<circle cx="13.0301" cy="12.8788" r="11.3636" fill="#D9F3F5"/>
<path d="M11.2151 7.64967L11.2062 7.65849C11.1974 7.66731 11.1886 7.68055 11.1754 7.6982C11.1489 7.73349 11.1048 7.78643 11.0518 7.8482C10.9415 7.97173 10.7871 8.13937 10.6018 8.30261C10.2136 8.64673 9.77241 8.92026 9.37977 8.92026C8.98712 8.92026 8.54594 8.64673 8.15771 8.30261C7.97242 8.13937 7.818 7.97173 7.70771 7.8482C7.65477 7.78643 7.61065 7.73349 7.58418 7.6982C7.57094 7.68055 7.55771 7.66731 7.5533 7.65849L7.54447 7.64967C7.45183 7.52614 7.293 7.47761 7.15183 7.52614C7.01065 7.57467 6.90918 7.70702 6.90918 7.86143C6.90918 8.65114 7.20477 9.43202 7.64153 10.0144C8.07389 10.5879 8.69594 11.0379 9.37977 11.0379C10.0636 11.0379 10.6857 10.5879 11.118 10.0144C11.5548 9.43202 11.8504 8.65114 11.8504 7.86143C11.8504 7.71143 11.7533 7.57467 11.6077 7.52614C11.4621 7.47761 11.3033 7.52614 11.2151 7.64967ZM18.2739 7.64967L18.2651 7.65849C18.2562 7.66731 18.2474 7.68055 18.2342 7.6982C18.2077 7.73349 18.1636 7.78643 18.1107 7.8482C18.0004 7.97173 17.8459 8.13937 17.6607 8.30261C17.2724 8.64673 16.8312 8.92026 16.4386 8.92026C16.0459 8.92026 15.6048 8.64673 15.2165 8.30261C15.0312 8.13937 14.8768 7.97173 14.7665 7.8482C14.7136 7.78643 14.6695 7.73349 14.643 7.6982C14.6298 7.68055 14.6165 7.66731 14.6121 7.65849L14.6033 7.64967C14.5107 7.52614 14.3518 7.47761 14.2107 7.52614C14.0695 7.57467 13.968 7.70702 13.968 7.86143C13.968 8.65114 14.2636 9.43202 14.7004 10.0144C15.1327 10.5879 15.7548 11.0379 16.4386 11.0379C17.1224 11.0379 17.7445 10.5879 18.1768 10.0144C18.6136 9.43202 18.9092 8.65114 18.9092 7.86143C18.9092 7.71143 18.8121 7.57467 18.6665 7.52614C18.5209 7.47761 18.3621 7.52614 18.2739 7.64967Z" fill="#53969A"/>
<path d="M12.9123 16.0583C14.3078 16.0583 15.2832 16.7148 15.8534 17.33H15.8459C16.1836 17.6977 16.75 17.7202 17.1177 17.3826C17.4853 17.0449 17.5078 16.4747 17.1702 16.1108C16.3486 15.2142 14.9193 14.2576 12.9085 14.2576C10.8977 14.2576 9.47218 15.218 8.64686 16.1108C8.30923 16.4747 8.33549 17.0449 8.69938 17.3826C9.06327 17.7202 9.6335 17.6939 9.97113 17.33C10.5414 16.7148 11.5167 16.0583 12.9123 16.0583Z" fill="#53969A"/>
<path d="M8.48474 3.78784C8.016 4.0423 7.76355 4.2106 7.34838 4.54542C6.85985 4.93939 6.33828 5.55552 6.21202 5.68178M4.69694 7.19693C4.19189 7.82825 3.41895 9.40935 3.18179 10.9848C3.02765 12.0088 3.18179 13.3838 3.18179 13.6363" stroke="white" stroke-width="0.757576" stroke-linecap="round"/>
</g>
<defs>
<clipPath id="clip0_11_162">
<rect width="24" height="24" fill="white" transform="translate(0.90918 0.757568)"/>
</clipPath>
</defs>
</svg>
