<svg width="25" height="25" viewBox="0 0 25 25" fill="none" xmlns="http://www.w3.org/2000/svg">
<g clip-path="url(#clip0_11_159)">
<circle cx="13.6971" cy="12.8788" r="11.3636" fill="#FBB948"/>
<circle cx="12.9393" cy="12.8788" r="11.3636" fill="#FEE48F"/>
<path d="M8.39392 3.78784C7.92518 4.0423 7.67273 4.2106 7.25756 4.54542C6.76903 4.93939 6.24746 5.55552 6.1212 5.68178M4.60612 7.19693C4.10107 7.82825 3.32813 9.40935 3.09097 10.9848C2.93683 12.0088 3.09097 13.3838 3.09097 13.6363" stroke="white" stroke-width="0.757576" stroke-linecap="round"/>
<path d="M12.8215 17.3208C14.217 17.3208 15.1924 16.6643 15.7626 16.0491H15.7551C16.0928 15.6814 16.6592 15.6589 17.0269 15.9965C17.3945 16.3342 17.417 16.9044 17.0794 17.2683C16.2578 18.1649 14.8285 19.1215 12.8177 19.1215C10.8069 19.1215 9.38136 18.1611 8.55604 17.2683C8.21841 16.9044 8.24467 16.3342 8.60856 15.9965C8.97245 15.6589 9.54268 15.6852 9.88031 16.0491C10.4505 16.6643 11.4259 17.3208 12.8215 17.3208Z" fill="black"/>
<circle cx="20.8942" cy="15.5303" r="1.13636" fill="#FD5454"/>
<circle cx="16.3483" cy="10.2272" r="1.13636" fill="black"/>
<circle cx="8.77259" cy="10.2272" r="1.13636" fill="black"/>
<circle cx="4.985" cy="15.5303" r="1.13636" fill="#FD5454"/>
</g>
<defs>
<clipPath id="clip0_11_159">
<rect width="24" height="24" fill="white" transform="translate(0.818359 0.757568)"/>
</clipPath>
</defs>
</svg>
