<svg width="25" height="25" viewBox="0 0 25 25" fill="none" xmlns="http://www.w3.org/2000/svg">
<g clip-path="url(#clip0_11_158)">
<circle cx="13.7274" cy="12.8788" r="11.3636" fill="#FBB948"/>
<circle cx="12.9696" cy="12.8788" r="11.3636" fill="#FEE48F"/>
<path d="M11.1545 13.1458L11.1457 13.137C11.1369 13.1282 11.128 13.1149 11.1148 13.0973C11.0883 13.062 11.0442 13.009 10.9913 12.9473C10.881 12.8237 10.7266 12.6561 10.5413 12.4929C10.153 12.1487 9.71187 11.8752 9.31922 11.8752C8.92657 11.8752 8.4854 12.1487 8.09716 12.4929C7.91187 12.6561 7.75746 12.8237 7.64716 12.9473C7.59422 13.009 7.5501 13.062 7.52363 13.0973C7.5104 13.1149 7.49716 13.1282 7.49275 13.137L7.48393 13.1458C7.39128 13.2693 7.23246 13.3179 7.09128 13.2693C6.9501 13.2208 6.84863 13.0885 6.84863 12.934C6.84863 12.1443 7.14422 11.3635 7.58099 10.7811C8.01334 10.2076 8.6354 9.75757 9.31922 9.75757C10.003 9.75757 10.6251 10.2076 11.0575 10.7811C11.4942 11.3635 11.7898 12.1443 11.7898 12.934C11.7898 13.084 11.6928 13.2208 11.5472 13.2693C11.4016 13.3179 11.2428 13.2693 11.1545 13.1458ZM18.2133 13.1458L18.2045 13.137C18.1957 13.1282 18.1869 13.1149 18.1736 13.0973C18.1472 13.062 18.103 13.009 18.0501 12.9473C17.9398 12.8237 17.7854 12.6561 17.6001 12.4929C17.2119 12.1487 16.7707 11.8752 16.378 11.8752C15.9854 11.8752 15.5442 12.1487 15.156 12.4929C14.9707 12.6561 14.8163 12.8237 14.706 12.9473C14.653 13.009 14.6089 13.062 14.5825 13.0973C14.5692 13.1149 14.556 13.1282 14.5516 13.137L14.5428 13.1458C14.4501 13.2693 14.2913 13.3179 14.1501 13.2693C14.0089 13.2208 13.9075 13.0885 13.9075 12.934C13.9075 12.1443 14.203 11.3635 14.6398 10.7811C15.0722 10.2076 15.6942 9.75757 16.378 9.75757C17.0619 9.75757 17.6839 10.2076 18.1163 10.7811C18.553 11.3635 18.8486 12.1443 18.8486 12.934C18.8486 13.084 18.7516 13.2208 18.606 13.2693C18.4604 13.3179 18.3016 13.2693 18.2133 13.1458Z" fill="black"/>
<path d="M8.4242 3.78784C7.95546 4.0423 7.703 4.2106 7.28783 4.54542C6.79931 4.93939 6.27773 5.55552 6.15147 5.68178M4.63639 7.19693C4.13134 7.82825 3.35841 9.40935 3.12124 10.9848C2.9671 12.0088 3.12124 13.3838 3.12124 13.6363" stroke="white" stroke-width="0.757576" stroke-linecap="round"/>
<path d="M12.8517 17.3208C14.2473 17.3208 15.2227 16.6643 15.7929 16.0491H15.7854C16.123 15.6814 16.6895 15.6589 17.0571 15.9965C17.4248 16.3342 17.4473 16.9044 17.1097 17.2683C16.2881 18.1649 14.8588 19.1215 12.848 19.1215C10.8372 19.1215 9.41164 18.1611 8.58631 17.2683C8.24868 16.9044 8.27494 16.3342 8.63883 15.9965C9.00273 15.6589 9.57295 15.6852 9.91059 16.0491C10.4808 16.6643 11.4562 17.3208 12.8517 17.3208Z" fill="black"/>
<circle cx="20.9244" cy="15.5303" r="1.13636" fill="#FD5454"/>
<circle cx="5.01527" cy="15.5303" r="1.13636" fill="#FD5454"/>
</g>
<defs>
<clipPath id="clip0_11_158">
<rect width="24" height="24" fill="white" transform="translate(0.848633 0.757568)"/>
</clipPath>
</defs>
</svg>
