<svg width="24" height="24" viewBox="0 0 24 24" fill="none" xmlns="http://www.w3.org/2000/svg">
<path d="M18.75 8L17.77 17.7977C17.6218 19.2828 17.5483 20.0248 17.21 20.586C16.9133 21.08 16.4768 21.475 15.9558 21.7212C15.3643 22 14.62 22 13.1267 22H10.3733C8.88117 22 8.13567 22 7.54417 21.72C7.02272 21.474 6.58588 21.079 6.28883 20.5848C5.95283 20.0248 5.87817 19.2828 5.72883 17.7977L4.75 8M13.5 15.5833V9.75M10 15.5833V9.75M3 5.08333H8.38417M8.38417 5.08333L8.8345 1.966C8.96517 1.399 9.4365 1 9.97783 1H13.5222C14.0635 1 14.5337 1.399 14.6655 1.966L15.1158 5.08333M8.38417 5.08333H15.1158M15.1158 5.08333H20.5" stroke="#F5060A" stroke-width="1.58333" stroke-linecap="round" stroke-linejoin="round"/>
</svg>
