<svg width="48" height="48" viewBox="0 0 48 48" fill="none" xmlns="http://www.w3.org/2000/svg">
<rect x="0.75" y="0.75" width="46.5" height="46.5" rx="23.25" fill="#CBEFED"/>
<rect x="0.75" y="0.75" width="46.5" height="46.5" rx="23.25" stroke="#6B6DB0" stroke-width="1.5"/>
<path d="M34.3297 20.802C33.39 20.268 32.216 20.664 31.7074 21.6303L29.202 26.7411C29.155 26.8378 29.073 26.9131 28.9726 26.9517C28.8722 26.9902 28.7609 26.9892 28.6613 26.9487C28.5823 26.9173 28.5147 26.8628 28.467 26.7925C28.4194 26.7221 28.3941 26.639 28.3943 26.554V12.3594C28.3943 11.5172 27.6162 10.9062 26.7734 10.9062C25.9306 10.9062 25.1992 11.5172 25.1992 12.3594V21.8434C25.2012 22.0206 25.1341 22.1915 25.0122 22.3199C24.8902 22.4484 24.7229 22.5242 24.5459 22.5312C24.4574 22.5329 24.3694 22.517 24.2871 22.4842C24.2049 22.4515 24.1299 22.4027 24.0667 22.3407C24.0035 22.2787 23.9533 22.2047 23.9191 22.1231C23.8848 22.0414 23.8672 21.9538 23.8672 21.8652V9.45312C23.8672 8.61092 23.2048 8 22.362 8C21.5192 8 20.8398 8.61092 20.8398 9.45312V21.8434C20.8419 22.0206 20.7748 22.1915 20.6528 22.3199C20.5308 22.4484 20.3635 22.5242 20.1865 22.5312C20.098 22.5329 20.01 22.517 19.9278 22.4842C19.8455 22.4515 19.7706 22.4027 19.7074 22.3407C19.6442 22.2787 19.594 22.2047 19.5597 22.1231C19.5254 22.0414 19.5078 21.9538 19.5078 21.8652V11.3906C19.5078 10.5484 18.7764 9.9375 17.9336 9.9375C17.0908 9.9375 16.3594 10.609 16.3594 11.4512V22.8122C16.3614 22.9893 16.2943 23.1602 16.1723 23.2887C16.0503 23.4171 15.8831 23.4929 15.7061 23.5C15.6175 23.5017 15.5296 23.4857 15.4473 23.453C15.365 23.4203 15.2901 23.3715 15.2269 23.3095C15.1637 23.2475 15.1135 23.1735 15.0792 23.0918C15.045 23.0102 15.0273 22.9225 15.0273 22.834V15.2656C15.0273 14.4234 14.3565 13.8125 13.5137 13.8125C12.6709 13.8125 11.9927 14.4313 12 15.2656V28.3438C12 35.4526 16.3594 39 21.6875 39H22.6562C27.9844 39 29.6621 36.6023 30.8906 33.6719L35.0484 23.4395C35.4516 22.3496 35.2688 21.3354 34.3297 20.802Z" fill="#6B6DB0"/>
</svg>
