<svg width="48" height="48" viewBox="0 0 48 48" fill="none" xmlns="http://www.w3.org/2000/svg">
<rect x="0.75" y="0.75" width="46.5" height="46.5" rx="23.25" fill="#CBEFED"/>
<rect x="0.75" y="0.75" width="46.5" height="46.5" rx="23.25" stroke="#6B6DB0" stroke-width="1.5"/>
<path d="M12.9203 20.802C13.86 20.268 15.034 20.664 15.5426 21.6303L18.048 26.7411C18.095 26.8378 18.177 26.9131 18.2774 26.9517C18.3778 26.9902 18.4891 26.9892 18.5887 26.9487C18.6677 26.9173 18.7353 26.8628 18.783 26.7925C18.8306 26.7221 18.8559 26.639 18.8557 26.554V12.3594C18.8557 11.5172 19.6338 10.9062 20.4766 10.9062C21.3194 10.9062 22.0508 11.5172 22.0508 12.3594V21.8434C22.0488 22.0206 22.1159 22.1915 22.2378 22.3199C22.3598 22.4484 22.5271 22.5242 22.7041 22.5312C22.7926 22.5329 22.8806 22.517 22.9629 22.4842C23.0451 22.4515 23.1201 22.4027 23.1833 22.3407C23.2465 22.2787 23.2967 22.2047 23.3309 22.1231C23.3652 22.0414 23.3828 21.9538 23.3828 21.8652V9.45312C23.3828 8.61092 24.0452 8 24.888 8C25.7308 8 26.4102 8.61092 26.4102 9.45312V21.8434C26.4081 22.0206 26.4752 22.1915 26.5972 22.3199C26.7192 22.4484 26.8865 22.5242 27.0635 22.5312C27.152 22.5329 27.24 22.517 27.3222 22.4842C27.4045 22.4515 27.4794 22.4027 27.5426 22.3407C27.6058 22.2787 27.656 22.2047 27.6903 22.1231C27.7246 22.0414 27.7422 21.9538 27.7422 21.8652V11.3906C27.7422 10.5484 28.4736 9.9375 29.3164 9.9375C30.1592 9.9375 30.8906 10.609 30.8906 11.4512V22.8122C30.8886 22.9893 30.9557 23.1602 31.0777 23.2887C31.1997 23.4171 31.3669 23.4929 31.5439 23.5C31.6325 23.5017 31.7204 23.4857 31.8027 23.453C31.885 23.4203 31.9599 23.3715 32.0231 23.3095C32.0863 23.2475 32.1365 23.1735 32.1708 23.0918C32.205 23.0102 32.2227 22.9225 32.2227 22.834V15.2656C32.2227 14.4234 32.8935 13.8125 33.7363 13.8125C34.5791 13.8125 35.2573 14.4313 35.25 15.2656V28.3438C35.25 35.4526 30.8906 39 25.5625 39H24.5938C19.2656 39 17.5879 36.6023 16.3594 33.6719L12.2016 23.4395C11.7984 22.3496 11.9812 21.3354 12.9203 20.802Z" fill="#6B6DB0"/>
</svg>
