<svg width="24" height="24" viewBox="0 0 24 24" fill="none" xmlns="http://www.w3.org/2000/svg">
<g clip-path="url(#clip0_11_310)">
<path d="M15.22 6.03L17.75 4.09L14.56 4L13.5 1L12.44 4L9.25 4.09L11.78 6.03L10.87 9.09L13.5 7.28L16.13 9.09L15.22 6.03Z" fill="#6B6DB0"/>
<path d="M19.61 12.25L21.25 11L19.19 10.95L18.5 9L17.81 10.95L15.75 11L17.39 12.25L16.8 14.23L18.5 13.06L20.2 14.23L19.61 12.25Z" fill="#6B6DB0"/>
<path d="M7 6C7 12.08 11.92 17 18 17C18.53 17 19.05 16.96 19.56 16.89C17.95 19.36 15.17 21 12 21C7.03 21 3 16.97 3 12C3 8.83 4.64 6.05 7.11 4.44C7.04 4.95 7 5.47 7 6Z" stroke="#6B6DB0" stroke-width="2" stroke-linecap="round" stroke-linejoin="round"/>
</g>
<defs>
<clipPath id="clip0_11_310">
<rect width="24" height="24" fill="white"/>
</clipPath>
</defs>
</svg>
