<svg width="25" height="25" viewBox="0 0 25 25" fill="none" xmlns="http://www.w3.org/2000/svg">
<g clip-path="url(#clip0_11_160)">
<circle cx="13.4242" cy="12.8788" r="11.3636" fill="#66539A"/>
<circle cx="12.6669" cy="12.8788" r="11.3636" fill="#E1D9F5"/>
<path d="M10.8513 9.89967L10.8425 9.90849C10.8336 9.91731 10.8248 9.93055 10.8116 9.9482C10.7851 9.98349 10.741 10.0364 10.6881 10.0982C10.5778 10.2217 10.4234 10.3894 10.2381 10.5526C9.84982 10.8967 9.40865 11.1703 9.016 11.1703C8.62335 11.1703 8.18218 10.8967 7.79394 10.5526C7.60865 10.3894 7.45423 10.2217 7.34394 10.0982C7.291 10.0364 7.24688 9.98349 7.22041 9.9482C7.20718 9.93055 7.19394 9.91731 7.18953 9.90849L7.1807 9.89967C7.08806 9.77614 6.92923 9.72761 6.78806 9.77614C6.64688 9.82467 6.54541 9.95702 6.54541 10.1114C6.54541 10.9011 6.841 11.682 7.27776 12.2644C7.71012 12.8379 8.33217 13.2879 9.016 13.2879C9.69982 13.2879 10.3219 12.8379 10.7542 12.2644C11.191 11.682 11.4866 10.9011 11.4866 10.1114C11.4866 9.96143 11.3895 9.82467 11.2439 9.77614C11.0984 9.72761 10.9395 9.77614 10.8513 9.89967ZM17.9101 9.89967L17.9013 9.90849C17.8925 9.91731 17.8836 9.93055 17.8704 9.9482C17.8439 9.98349 17.7998 10.0364 17.7469 10.0982C17.6366 10.2217 17.4822 10.3894 17.2969 10.5526C16.9086 10.8967 16.4675 11.1703 16.0748 11.1703C15.6822 11.1703 15.241 10.8967 14.8528 10.5526C14.6675 10.3894 14.5131 10.2217 14.4028 10.0982C14.3498 10.0364 14.3057 9.98349 14.2792 9.9482C14.266 9.93055 14.2528 9.91731 14.2484 9.90849L14.2395 9.89967C14.1469 9.77614 13.9881 9.72761 13.8469 9.77614C13.7057 9.82467 13.6042 9.95702 13.6042 10.1114C13.6042 10.9011 13.8998 11.682 14.3366 12.2644C14.7689 12.8379 15.391 13.2879 16.0748 13.2879C16.7586 13.2879 17.3807 12.8379 17.8131 12.2644C18.2498 11.682 18.5454 10.9011 18.5454 10.1114C18.5454 9.96143 18.4484 9.82467 18.3028 9.77614C18.1572 9.72761 17.9984 9.77614 17.9101 9.89967Z" fill="#66539A"/>
<path d="M8.12098 3.78784C7.65224 4.0423 7.39978 4.2106 6.98461 4.54542C6.49608 4.93939 5.97451 5.55552 5.84825 5.68178M4.33317 7.19693C3.82812 7.82825 3.05519 9.40935 2.81802 10.9848C2.66388 12.0088 2.81802 13.3838 2.81802 13.6363" stroke="white" stroke-width="0.757576" stroke-linecap="round"/>
<circle cx="13.0453" cy="17.803" r="1.89394" fill="#66539A"/>
</g>
<defs>
<clipPath id="clip0_11_160">
<rect width="24" height="24" fill="white" transform="translate(0.54541 0.757568)"/>
</clipPath>
</defs>
</svg>
