<svg width="24" height="24" viewBox="0 0 24 24" fill="none" xmlns="http://www.w3.org/2000/svg">
<path d="M10.53 15.47C10.6704 15.6106 10.7493 15.8012 10.7493 16C10.7493 16.1987 10.6704 16.3894 10.53 16.53L8.52997 18.53C8.12533 18.9348 7.57679 19.1628 7.00441 19.1641C6.43204 19.1654 5.88246 18.9399 5.47597 18.537C5.40404 18.4682 5.34652 18.3858 5.30676 18.2946C5.26699 18.2033 5.24579 18.1051 5.24437 18.0056C5.24295 17.9061 5.26135 17.8073 5.29849 17.715C5.33564 17.6227 5.39078 17.5386 5.46072 17.4678C5.53066 17.397 5.61399 17.3409 5.70585 17.3026C5.79771 17.2643 5.89627 17.2447 5.99579 17.2449C6.09531 17.2451 6.19379 17.2651 6.2855 17.3038C6.37721 17.3424 6.46031 17.3989 6.52997 17.47C6.78897 17.73 7.20997 17.73 7.46897 17.47L9.46897 15.47C9.60959 15.3295 9.80022 15.2506 9.99897 15.2506C10.1977 15.2506 10.3893 15.3295 10.53 15.47ZM13.301 3.52498C14.252 2.57392 15.542 2.03961 16.887 2.03961C18.232 2.03961 19.5219 2.57392 20.473 3.52498C21.424 4.47605 21.9583 5.76597 21.9583 7.11098C21.9583 8.45599 21.424 9.74591 20.473 10.697L10.695 20.475C9.7439 21.426 8.45398 21.9604 7.10897 21.9604C5.76396 21.9604 4.47403 21.426 3.52297 20.475C2.5719 19.5239 2.0376 18.234 2.0376 16.889C2.0376 15.544 2.5719 14.254 3.52297 13.303L13.301 3.52498ZM19.412 4.58598C19.0804 4.25429 18.6868 3.99116 18.2536 3.81164C17.8203 3.63212 17.3559 3.53972 16.887 3.53972C16.418 3.53972 15.9536 3.63212 15.5204 3.81164C15.0871 3.99116 14.6935 4.25429 14.362 4.58598L10.003 8.94498L15.053 13.995L19.413 9.63598C19.7447 9.30445 20.0078 8.91082 20.1873 8.47757C20.3668 8.04432 20.4592 7.57995 20.4592 7.11098C20.4592 6.64201 20.3668 6.17764 20.1873 5.74439C20.0078 5.31114 19.7437 4.91751 19.412 4.58598ZM13.994 15.056L8.94397 10.006L4.58497 14.364C4.24908 14.6946 3.98197 15.0885 3.79904 15.5228C3.6161 15.9572 3.52096 16.4235 3.51911 16.8948C3.51725 17.3661 3.60871 17.8331 3.78822 18.2689C3.96773 18.7047 4.23173 19.1007 4.565 19.4339C4.89827 19.7672 5.29422 20.0312 5.73002 20.2107C6.16581 20.3902 6.63283 20.4817 7.10414 20.4798C7.57546 20.478 8.04174 20.3828 8.47611 20.1999C8.91047 20.017 9.30433 19.7499 9.63497 19.414L13.994 15.056Z" fill="#6B6DB0"/>
</svg>
