<svg width="24" height="23" viewBox="0 0 24 23" fill="none" xmlns="http://www.w3.org/2000/svg">
<path d="M23 0C23.5523 0 24 0.447715 24 1V15.5C24 16.0523 23.5523 16.5 23 16.5H8.98062C8.7154 16.5 8.46105 16.6054 8.27351 16.7929L3 22.0664V17.5C3 16.9477 2.55228 16.5 2 16.5H1C0.447715 16.5 0 16.0523 0 15.5V1C0 0.447715 0.447715 0 1 0H23ZM22.5 2.5C22.5 1.94772 22.0523 1.5 21.5 1.5H2.5C1.94772 1.5 1.5 1.94772 1.5 2.5V14C1.5 14.5523 1.94772 15 2.5 15H3.5C4.05228 15 4.5 15.4477 4.5 16V18.4336L7.6407 15.2929C7.82824 15.1054 8.08259 15 8.34781 15H21.5C22.0523 15 22.5 14.5523 22.5 14V2.5ZM12 8.25C12 8.66421 11.6642 9 11.25 9C10.8358 9 10.5 8.66421 10.5 8.25V3.75C10.5 3.33579 10.8358 3 11.25 3C11.6642 3 12 3.33579 12 3.75V8.25ZM12 11.25C12 11.6642 11.6642 12 11.25 12C10.8358 12 10.5 11.6642 10.5 11.25C10.5 10.8358 10.8358 10.5 11.25 10.5C11.6642 10.5 12 10.8358 12 11.25Z" fill="#0B8695"/>
</svg>
