<svg width="22" height="22" viewBox="0 0 22 22" fill="none" xmlns="http://www.w3.org/2000/svg">
<path d="M20.2997 1.70001C19.9869 1.38681 19.6154 1.13834 19.2064 0.968818C18.7975 0.799293 18.3591 0.712036 17.9164 0.712036C17.4738 0.712036 17.0354 0.799293 16.6265 0.968818C16.2175 1.13834 15.846 1.38681 15.5332 1.70001L2.85944 14.3746C2.4823 14.7517 2.20802 15.2197 2.06402 15.734L0.738016 20.4697C0.70738 20.5795 0.706479 20.6955 0.735407 20.8057C0.764335 20.9159 0.822052 21.0165 0.902644 21.0971C0.983236 21.1777 1.0838 21.2354 1.19405 21.2643C1.30429 21.2933 1.42024 21.2924 1.53002 21.2617L6.26487 19.9357C6.7795 19.7928 7.24821 19.5187 7.62516 19.1403L20.2997 6.46573C20.6128 6.15289 20.8612 5.78143 21.0306 5.37257C21.2001 4.9637 21.2873 4.52546 21.2873 4.08287C21.2873 3.64029 21.2001 3.20204 21.0306 2.79318C20.8612 2.38431 20.6128 2.01285 20.2997 1.70001ZM16.4426 2.60859C16.8336 2.21769 17.3639 1.99814 17.9167 1.99822C18.4696 1.9983 18.9998 2.21801 19.3907 2.60901C19.7816 3.00002 20.0012 3.53029 20.0011 4.08317C20.001 4.63606 19.7813 5.16627 19.3903 5.55716L18.0703 6.8763L15.1226 3.92773L16.4426 2.60859ZM14.214 4.83716L17.1626 7.78573L6.71573 18.2317C6.49509 18.4538 6.22033 18.6146 5.91859 18.698L2.28344 19.7154L3.30087 16.0812C3.38542 15.7799 3.54598 15.5054 3.76716 15.284L14.214 4.83716Z" fill="#0B8695"/>
</svg>
